<svg xmlns="http://www.w3.org/2000/svg" width="32" height="32" viewBox="0 0 32 32" shape-rendering="crispEdges">
  <rect width="32" height="32" fill="none"/>

  <rect x="3" y="3" width="20" height="15" fill="#c0c0c0"/>
  <rect x="4" y="4" width="18" height="13" fill="#ffffff"/>
  <rect x="5" y="5" width="16" height="11" fill="#000080"/>
  <rect x="6" y="6" width="7" height="4" fill="#2d67ff"/>
  <rect x="13" y="10" width="7" height="5" fill="#001d70"/>

  <rect x="3" y="18" width="20" height="1" fill="#404040"/>
  <rect x="3" y="3" width="1" height="16" fill="#ffffff"/>
  <rect x="3" y="3" width="20" height="1" fill="#ffffff"/>
  <rect x="22" y="3" width="1" height="16" fill="#404040"/>

  <rect x="10" y="19" width="6" height="2" fill="#c0c0c0"/>
  <rect x="10" y="19" width="6" height="1" fill="#ffffff"/>
  <rect x="10" y="20" width="6" height="1" fill="#808080"/>

  <rect x="2" y="22" width="18" height="8" fill="#d4d0c8"/>
  <rect x="2" y="22" width="18" height="1" fill="#ffffff"/>
  <rect x="2" y="22" width="1" height="8" fill="#ffffff"/>
  <rect x="19" y="22" width="1" height="8" fill="#404040"/>
  <rect x="2" y="29" width="18" height="1" fill="#404040"/>
  <rect x="5" y="26" width="3" height="1" fill="#00a000"/>
  <rect x="10" y="26" width="6" height="1" fill="#808080"/>

  <rect x="20" y="24" width="9" height="5" fill="#d4d0c8"/>
  <rect x="20" y="24" width="9" height="1" fill="#ffffff"/>
  <rect x="20" y="24" width="1" height="5" fill="#ffffff"/>
  <rect x="28" y="24" width="1" height="5" fill="#404040"/>
  <rect x="20" y="28" width="9" height="1" fill="#404040"/>
  <rect x="22" y="26" width="4" height="1" fill="#808080"/>
</svg>
